<svg width="100" height="40" viewBox="0 0 100 40" fill="none" xmlns="http://www.w3.org/2000/svg">
<path d="M7.99212 5.73601V32.76H20.9521L20.1361 39H0.120117V5.73601H7.99212Z" fill="#141414"/>
<path d="M45.5907 25.752C45.5907 26.808 45.5427 27.72 45.4467 28.488H29.6547C29.9107 30.632 30.5187 32.136 31.4787 33C32.4387 33.864 33.7667 34.296 35.4627 34.296C36.4867 34.296 37.4787 34.12 38.4387 33.768C39.3987 33.384 40.4387 32.808 41.5587 32.04L44.6787 36.264C41.7027 38.632 38.3907 39.816 34.7427 39.816C30.6147 39.816 27.4467 38.6 25.2387 36.168C23.0307 33.736 21.9267 30.472 21.9267 26.376C21.9267 23.784 22.3907 21.464 23.3187 19.416C24.2467 17.336 25.6067 15.704 27.3987 14.52C29.1907 13.304 31.3347 12.696 33.8307 12.696C37.5107 12.696 40.3907 13.848 42.4707 16.152C44.5507 18.456 45.5907 21.656 45.5907 25.752ZM38.1507 23.592C38.0867 19.688 36.7107 17.736 34.0227 17.736C32.7107 17.736 31.6867 18.216 30.9507 19.176C30.2467 20.136 29.8147 21.72 29.6547 23.928H38.1507V23.592Z" fill="#141414"/>
<path d="M69.6384 31.608C69.6384 32.568 69.7664 33.272 70.0224 33.72C70.3104 34.168 70.7584 34.504 71.3664 34.728L69.7824 39.672C68.2144 39.544 66.9344 39.208 65.9424 38.664C64.9504 38.088 64.1824 37.192 63.6384 35.976C61.9744 38.536 59.4144 39.816 55.9584 39.816C53.4304 39.816 51.4144 39.08 49.9104 37.608C48.4064 36.136 47.6544 34.216 47.6544 31.848C47.6544 29.064 48.6784 26.936 50.7264 25.464C52.7744 23.992 55.7344 23.256 59.6064 23.256H62.1984V22.152C62.1984 20.648 61.8784 19.624 61.2384 19.08C60.5984 18.504 59.4784 18.216 57.8784 18.216C57.0464 18.216 56.0384 18.344 54.8544 18.6C53.6704 18.824 52.4544 19.144 51.2064 19.56L49.4784 14.568C51.0784 13.96 52.7104 13.496 54.3744 13.176C56.0704 12.856 57.6384 12.696 59.0784 12.696C62.7264 12.696 65.3984 13.448 67.0944 14.952C68.7904 16.456 69.6384 18.712 69.6384 21.72V31.608ZM58.1664 34.392C59.8944 34.392 61.2384 33.576 62.1984 31.944V27.432H60.3264C58.5984 27.432 57.3024 27.736 56.4384 28.344C55.6064 28.952 55.1904 29.896 55.1904 31.176C55.1904 32.2 55.4464 33 55.9584 33.576C56.5024 34.12 57.2384 34.392 58.1664 34.392ZM62.1984 8.52001C61.4944 8.52001 60.8864 8.40801 60.3744 8.18401C59.8624 7.96001 59.3024 7.64001 58.6944 7.22401C57.8944 6.64801 57.2384 6.36001 56.7264 6.36001C56.1824 6.36001 55.7184 6.53601 55.3344 6.88801C54.9824 7.20801 54.5984 7.73601 54.1824 8.47201L50.3904 6.64801C51.0304 4.98401 51.8784 3.62401 52.9344 2.56801C54.0224 1.51201 55.2384 0.984009 56.5824 0.984009C57.3184 0.984009 57.9424 1.11201 58.4544 1.36801C58.9984 1.59201 59.5904 1.91201 60.2304 2.32801C60.6784 2.61601 61.0304 2.82401 61.2864 2.95201C61.5744 3.08001 61.8624 3.14401 62.1504 3.14401C62.6624 3.14401 63.0944 2.98401 63.4464 2.66401C63.8304 2.31201 64.2304 1.76801 64.6464 1.03201L68.4384 2.90401C67.7664 4.60001 66.8864 5.96001 65.7984 6.98401C64.7424 8.00801 63.5424 8.52001 62.1984 8.52001Z" fill="#141414"/>
<path d="M86.7192 12.696C90.6232 12.696 93.6792 13.896 95.8872 16.296C98.0952 18.664 99.1992 21.992 99.1992 26.28C99.1992 29 98.6872 31.384 97.6632 33.432C96.6712 35.448 95.2312 37.016 93.3432 38.136C91.4872 39.256 89.2792 39.816 86.7192 39.816C82.8472 39.816 79.7912 38.632 77.5512 36.264C75.3432 33.864 74.2392 30.52 74.2392 26.232C74.2392 23.512 74.7352 21.144 75.7272 19.128C76.7512 17.08 78.1912 15.496 80.0472 14.376C81.9352 13.256 84.1592 12.696 86.7192 12.696ZM86.7192 18.264C85.1832 18.264 84.0312 18.92 83.2632 20.232C82.4952 21.512 82.1112 23.512 82.1112 26.232C82.1112 29.016 82.4792 31.048 83.2152 32.328C83.9832 33.608 85.1512 34.248 86.7192 34.248C88.2552 34.248 89.4072 33.608 90.1752 32.328C90.9432 31.016 91.3272 29 91.3272 26.28C91.3272 23.496 90.9432 21.464 90.1752 20.184C89.4392 18.904 88.2872 18.264 86.7192 18.264Z" fill="#141414"/>
</svg>
